{
  "accessors": [
    {
      "bufferView": 2,
      "componentType": 5126,
      "count": 9846,
      "max": [
        32.46659851074219,
        31.0580997467041,
        3.2795000076293945
      ],
      "min": [
        -68.3053970336914,
        -31.0580997467041,
        -13.657299995422363
      ],
      "type": "VEC3"
    },
    {
      "bufferView": 2,
      "byteOffset": 118152,
      "componentType": 5126,
      "count": 9846,
      "max": [
        1.0,
        1.0,
        0.9999997615814209
      ],
      "min": [
        -1.0,
        -1.0,
        -0.9999997615814209
      ],
      "type": "VEC3"
    },
    {
      "bufferView": 1,
      "componentType": 5126,
      "count": 9846,
      "max": [
        0.9487000107765198,
        0.9854999780654907
      ],
      "min": [
        0.005900000222027302,
        0.019099999219179153
      ],
      "type": "VEC2"
    },
    {
      "bufferView": 0,
      "componentType": 5125,
      "count": 54000,
      "type": "SCALAR"
    },
    {
      "bufferView": 2,
      "byteOffset": 236304,
      "componentType": 5126,
      "count": 31143,
      "max": [
        32.94850158691406,
        32.049198150634766,
        19.792299270629883
      ],
      "min": [
        -32.94850158691406,
        -32.049198150634766,
        -34.60279846191406
      ],
      "type": "VEC3"
    },
    {
      "bufferView": 2,
      "byteOffset": 610020,
      "componentType": 5126,
      "count": 31143,
      "max": [
        0.9999802112579346,
        0.9988521337509155,
        1.0
      ],
      "min": [
        -0.9999802112579346,
        -0.9988521337509155,
        -1.0
      ],
      "type": "VEC3"
    },
    {
      "bufferView": 1,
      "byteOffset": 78768,
      "componentType": 5126,
      "count": 31143,
      "max": [
        0.98580002784729,
        0.9843999743461609
      ],
      "min": [
        0.009499999694526196,
        0.1429000049829483
      ],
      "type": "VEC2"
    },
    {
      "bufferView": 0,
      "byteOffset": 216000,
      "componentType": 5125,
      "count": 177984,
      "type": "SCALAR"
    }
  ],
  "asset": {
    "extras": {
      "author": "lin_ko (https://sketchfab.com/lin-ko)",
      "license": "CC-BY-4.0 (http://creativecommons.org/licenses/by/4.0/)",
      "source": "https://sketchfab.com/3d-models/cat-arun-afb02c94ded3423895fd582b69e0c46a",
      "title": "Cat- arun"
    },
    "generator": "Sketchfab-12.65.0",
    "version": "2.0"
  },
  "bufferViews": [
    {
      "buffer": 0,
      "byteLength": 927936,
      "name": "floatBufferViews",
      "target": 34963
    },
    {
      "buffer": 0,
      "byteLength": 327912,
      "byteOffset": 927936,
      "byteStride": 8,
      "name": "floatBufferViews",
      "target": 34962
    },
    {
      "buffer": 0,
      "byteLength": 983736,
      "byteOffset": 1255848,
      "byteStride": 12,
      "name": "floatBufferViews",
      "target": 34962
    }
  ],
  "buffers": [
    {
      "byteLength": 2239584,
      "uri": "scene.bin"
    }
  ],
  "extensionsUsed": [
    "KHR_materials_unlit"
  ],
  "images": [
    {
      "uri": "textures/wire_115115115_baseColor.png"
    }
  ],
  "materials": [
    {
      "extensions": {
        "KHR_materials_unlit": {}
      },
      "name": "wire_115115115",
      "pbrMetallicRoughness": {
        "baseColorTexture": {
          "index": 0
        },
        "metallicFactor": 0.0
      }
    }
  ],
  "meshes": [
    {
      "name": "Object_0",
      "primitives": [
        {
          "attributes": {
            "NORMAL": 1,
            "POSITION": 0,
            "TEXCOORD_0": 2
          },
          "indices": 3,
          "material": 0,
          "mode": 4
        }
      ]
    },
    {
      "name": "Object_1",
      "primitives": [
        {
          "attributes": {
            "NORMAL": 5,
            "POSITION": 4,
            "TEXCOORD_0": 6
          },
          "indices": 7,
          "material": 0,
          "mode": 4
        }
      ]
    }
  ],
  "nodes": [
    {
      "children": [
        1
      ],
      "matrix": [
        1.0,
        0.0,
        0.0,
        0.0,
        0.0,
        2.220446049250313e-16,
        -1.0,
        0.0,
        0.0,
        1.0,
        2.220446049250313e-16,
        0.0,
        0.0,
        0.0,
        0.0,
        1.0
      ],
      "name": "Sketchfab_model"
    },
    {
      "children": [
        2,
        3
      ],
      "name": "cat-arun.obj.cleaner.materialmerger.gles"
    },
    {
      "mesh": 0,
      "name": "Object_2"
    },
    {
      "mesh": 1,
      "name": "Object_3"
    }
  ],
  "samplers": [
    {
      "magFilter": 9729,
      "minFilter": 9987,
      "wrapS": 10497,
      "wrapT": 10497
    }
  ],
  "scene": 0,
  "scenes": [
    {
      "name": "Sketchfab_Scene",
      "nodes": [
        0
      ]
    }
  ],
  "textures": [
    {
      "sampler": 0,
      "source": 0
    }
  ]
}
