<?xml version="1.0" encoding="utf-8"?>
<svg viewBox="123.491 184.765 207.013 149.384" xmlns="http://www.w3.org/2000/svg">
  <g transform="matrix(1, 0, 0, 1, -5.9917641578877605, 0)" style="pointer-events: none;">
    <path style="fill: none; stroke-width: 30px; paint-order: fill; stroke: rgb(32, 35, 93); stroke-miterlimit: 5.3; stroke-linecap: round; stroke-linejoin: round;" d="M 144.592 274.879 C 144.592 274.879 163.167 320.279 218.89 292.118 C 274.613 263.957 285.998 200 285.998 200 C 285.998 200 305.992 228.125 291.171 319.001"/>
    <path style="fill: none; stroke-linejoin: round; stroke-width: 25px; paint-order: fill; stroke: rgb(32, 35, 93); stroke-linecap: round;" d="M 323.746 263.606 C 323.746 263.606 263.229 290.569 188.932 274.391 C 188.932 274.391 158.657 257.614 200 237.841"/>
  </g>
  <path d="M 293.826 310.576 Q 294.094 311.045 294.094 311.715 Q 294.094 312.72 293.39 313.457 Q 292.687 314.194 291.548 314.194 Q 290.811 314.194 290.242 313.859 Q 289.672 313.524 289.337 312.854 Q 288.064 310.375 287.093 306.657 Q 286.122 302.939 285.418 298.383 Q 284.715 293.828 284.279 288.569 Q 283.844 283.31 283.576 277.683 Q 278.552 278.353 272.288 279.157 Q 266.024 279.961 257.985 281.032 Q 252.358 281.836 246.529 282.439 Q 232.193 298.049 216.349 306.121 Q 200.506 314.194 184.561 314.194 Q 177.46 314.194 172.268 312.82 Q 167.077 311.447 163.693 309.739 Q 160.31 308.03 158.602 306.557 Q 156.894 305.083 156.76 304.949 Q 156.09 304.279 156.09 303.207 Q 156.09 302.135 156.827 301.398 Q 157.564 300.661 158.569 300.661 Q 159.707 300.661 160.444 301.465 Q 160.578 301.599 162.052 302.838 Q 163.526 304.078 166.44 305.485 Q 169.354 306.891 173.843 308.03 Q 178.331 309.169 184.495 309.169 Q 192.936 309.169 200.64 306.891 Q 208.344 304.614 215.21 300.963 Q 222.077 297.312 228.006 292.622 Q 233.935 287.933 238.758 283.109 Q 234.002 283.511 229.312 283.712 Q 224.623 283.913 220.067 283.913 Q 211.09 283.913 202.984 282.908 Q 194.878 281.903 188.715 279.525 Q 182.552 277.147 178.901 273.194 Q 175.25 269.242 175.25 263.347 Q 175.25 260.667 176.355 257.987 Q 177.46 255.307 179.001 253.13 Q 180.542 250.953 182.217 249.58 Q 183.892 248.206 185.097 248.206 Q 186.035 248.206 186.839 248.876 Q 187.643 249.546 187.643 250.685 Q 187.643 251.288 187.375 251.857 Q 187.107 252.427 186.571 252.762 Q 186.437 252.896 185.432 253.7 Q 184.428 254.504 183.289 255.877 Q 182.15 257.25 181.212 259.16 Q 180.274 261.069 180.274 263.28 Q 180.274 267.098 182.92 270.012 Q 185.566 272.926 190.624 274.903 Q 195.682 276.879 203.051 277.884 Q 210.42 278.889 219.866 278.889 Q 225.293 278.889 231.322 278.554 Q 237.351 278.219 244.051 277.549 Q 247.266 273.998 249.745 270.85 Q 252.224 267.701 253.965 265.222 Q 256.846 261.136 259.995 256.513 Q 263.143 251.891 266.258 247.134 Q 269.374 242.378 272.355 237.722 Q 275.336 233.066 277.949 228.946 Q 280.561 224.826 282.638 221.443 Q 284.715 218.06 286.055 215.849 Q 286.457 214.04 287.261 212.533 Q 288.064 211.026 289.873 211.026 Q 290.878 211.026 291.816 211.863 Q 292.754 212.7 292.754 213.973 Q 292.754 214.911 292.084 215.983 Q 291.414 217.055 290.811 217.792 Q 290.61 219.065 290.175 223.218 Q 289.739 227.372 289.304 233.368 Q 288.868 239.363 288.567 246.565 Q 288.265 253.767 288.265 261.136 Q 288.265 263.882 288.265 266.562 Q 288.265 269.242 288.399 271.989 Q 298.448 270.716 303.071 270.213 Q 307.693 269.711 307.961 269.711 Q 308.832 269.711 309.669 270.414 Q 310.507 271.118 310.507 272.257 Q 310.507 273.194 309.87 273.898 Q 309.234 274.601 308.229 274.735 Q 307.023 274.869 305.415 275.07 Q 303.808 275.271 301.463 275.539 Q 299.118 275.807 295.969 276.176 Q 292.821 276.544 288.6 277.08 Q 288.801 282.573 289.237 287.631 Q 289.672 292.689 290.309 297.044 Q 290.945 301.398 291.816 304.882 Q 292.687 308.365 293.826 310.576 Z M 257.315 276.008 Q 265.22 274.936 271.685 274.099 Q 278.15 273.261 283.375 272.591 Q 283.308 269.711 283.274 266.83 Q 283.241 263.949 283.241 261.002 Q 283.241 251.556 283.576 242.947 Q 283.911 234.339 284.514 227.975 Q 281.834 232.195 278.585 237.32 Q 275.336 242.445 271.852 247.771 Q 268.369 253.097 264.818 258.322 Q 261.268 263.548 258.052 268.103 Q 256.444 270.381 254.769 272.524 Q 253.094 274.668 251.42 276.745 Q 252.894 276.611 254.334 276.41 Q 255.774 276.209 257.315 276.008 Z" style="fill: rgb(191, 191, 191); stroke-linecap: round; stroke: rgb(191, 191, 191); stroke-width: 2px;" transform="matrix(1, 0, 0, 1, -1.1102230246251565e-16, 0)"/>
  <rect x="123.491" y="184.765" width="207.013" height="149.384" style="stroke: rgba(0, 0, 0, 0); fill: rgba(216, 216, 216, 0);" transform="matrix(1, 0, 0, 1, -1.1102230246251565e-16, 0)"/>
</svg>